{
  "accessors": [
    {
      "bufferView": 2,
      "componentType": 5126,
      "count": 588,
      "max": [
        0.21120001375675201,
        0.2112000286579132,
        -0.5628926753997803
      ],
      "min": [
        -0.2112000286579132,
        -0.21120001375675201,
        -0.9732572436332703
      ],
      "type": "VEC3"
    },
    {
      "bufferView": 2,
      "byteOffset": 7056,
      "componentType": 5126,
      "count": 588,
      "max": [
        0.9963027238845825,
        0.9943904876708984,
        0.6857142448425293
      ],
      "min": [
        -0.9995681047439575,
        -0.9943904876708984,
        -0.9171673059463501
      ],
      "type": "VEC3"
    },
    {
      "bufferView": 1,
      "componentType": 5126,
      "count": 588,
      "max": [
        0.6380543112754822,
        0.9244788289070129
      ],
      "min": [
        0.00017303771164733917,
        0.6793431639671326
      ],
      "type": "VEC2"
    },
    {
      "bufferView": 0,
      "componentType": 5125,
      "count": 3060,
      "type": "SCALAR"
    },
    {
      "bufferView": 2,
      "byteOffset": 14112,
      "componentType": 5126,
      "count": 596,
      "max": [
        0.4949174225330353,
        0.4949168860912323,
        0.6216317415237427
      ],
      "min": [
        -0.49491721391677856,
        -0.49491751194000244,
        -0.6098846793174744
      ],
      "type": "VEC3"
    },
    {
      "bufferView": 2,
      "byteOffset": 21264,
      "componentType": 5126,
      "count": 596,
      "max": [
        1.0,
        1.0,
        1.0
      ],
      "min": [
        -1.0,
        -1.0,
        -1.0
      ],
      "type": "VEC3"
    },
    {
      "bufferView": 1,
      "byteOffset": 4704,
      "componentType": 5126,
      "count": 596,
      "max": [
        0.913489818572998,
        0.7321950793266296
      ],
      "min": [
        0.00017303771164733917,
        0.00017303771164733917
      ],
      "type": "VEC2"
    },
    {
      "bufferView": 0,
      "byteOffset": 12240,
      "componentType": 5125,
      "count": 3264,
      "type": "SCALAR"
    },
    {
      "bufferView": 2,
      "byteOffset": 28416,
      "componentType": 5126,
      "count": 618,
      "max": [
        0.22235414385795593,
        0.06600002199411392,
        0.1986556053161621
      ],
      "min": [
        -0.2223583608865738,
        -0.06600000709295273,
        -0.5781496167182922
      ],
      "type": "VEC3"
    },
    {
      "bufferView": 2,
      "byteOffset": 35832,
      "componentType": 5126,
      "count": 618,
      "max": [
        0.9997555017471313,
        0.9984421730041504,
        0.991223156452179
      ],
      "min": [
        -0.9997595548629761,
        -0.998792827129364,
        -0.9964041709899902
      ],
      "type": "VEC3"
    },
    {
      "bufferView": 1,
      "byteOffset": 9472,
      "componentType": 5126,
      "count": 618,
      "max": [
        0.9998270273208618,
        0.7845533490180969
      ],
      "min": [
        0.6384004354476929,
        0.00017303771164733917
      ],
      "type": "VEC2"
    },
    {
      "bufferView": 0,
      "byteOffset": 25296,
      "componentType": 5125,
      "count": 3204,
      "type": "SCALAR"
    }
  ],
  "asset": {
    "extras": {
      "author": "wewwuworks (https://sketchfab.com/Ensign_Crusher)",
      "license": "CC-BY-4.0 (http://creativecommons.org/licenses/by/4.0/)",
      "source": "https://sketchfab.com/3d-models/lightbulb-eb9b8ab2aeb84c6eb87be2ad3501705a",
      "title": "Lightbulb"
    },
    "generator": "Sketchfab-12.65.0",
    "version": "2.0"
  },
  "bufferViews": [
    {
      "buffer": 0,
      "byteLength": 38112,
      "name": "floatBufferViews",
      "target": 34963
    },
    {
      "buffer": 0,
      "byteLength": 14416,
      "byteOffset": 38112,
      "byteStride": 8,
      "name": "floatBufferViews",
      "target": 34962
    },
    {
      "buffer": 0,
      "byteLength": 43248,
      "byteOffset": 52528,
      "byteStride": 12,
      "name": "floatBufferViews",
      "target": 34962
    }
  ],
  "buffers": [
    {
      "byteLength": 95776,
      "uri": "scene.bin"
    }
  ],
  "materials": [
    {
      "doubleSided": true,
      "name": "Connection",
      "pbrMetallicRoughness": {
        "baseColorFactor": [
          0.476989,
          0.476989,
          0.476989,
          1.0
        ],
        "metallicFactor": 0.0,
        "roughnessFactor": 0.8239417257461427
      }
    },
    {
      "alphaMode": "BLEND",
      "doubleSided": true,
      "emissiveFactor": [
        1.0,
        1.0,
        0.7016655
      ],
      "name": "Lightbulb_Glass",
      "pbrMetallicRoughness": {
        "baseColorFactor": [
          0.975841,
          1.0,
          0.467777,
          0.15
        ],
        "metallicFactor": 0.0,
        "roughnessFactor": 0.8239417257461427
      }
    },
    {
      "doubleSided": true,
      "emissiveFactor": [
        1.0,
        0.5845725,
        0.1089725
      ],
      "name": "Metal",
      "pbrMetallicRoughness": {
        "baseColorFactor": [
          0.661863,
          0.233829,
          0.043589,
          1.0
        ],
        "metallicFactor": 0.0,
        "roughnessFactor": 0.9572334781973171
      }
    }
  ],
  "meshes": [
    {
      "name": "Lightbulb_Connection_0",
      "primitives": [
        {
          "attributes": {
            "NORMAL": 1,
            "POSITION": 0,
            "TEXCOORD_0": 2
          },
          "indices": 3,
          "material": 0,
          "mode": 4
        }
      ]
    },
    {
      "name": "Lightbulb_Lightbulb_Glass_0",
      "primitives": [
        {
          "attributes": {
            "NORMAL": 5,
            "POSITION": 4,
            "TEXCOORD_0": 6
          },
          "indices": 7,
          "material": 1,
          "mode": 4
        }
      ]
    },
    {
      "name": "Lightbulb_Metal_0",
      "primitives": [
        {
          "attributes": {
            "NORMAL": 9,
            "POSITION": 8,
            "TEXCOORD_0": 10
          },
          "indices": 11,
          "material": 2,
          "mode": 4
        }
      ]
    }
  ],
  "nodes": [
    {
      "children": [
        1
      ],
      "matrix": [
        1.0,
        0.0,
        0.0,
        0.0,
        0.0,
        2.220446049250313e-16,
        -1.0,
        0.0,
        0.0,
        1.0,
        2.220446049250313e-16,
        0.0,
        0.0,
        0.0,
        0.0,
        1.0
      ],
      "name": "Sketchfab_model"
    },
    {
      "children": [
        2
      ],
      "matrix": [
        1.0,
        0.0,
        0.0,
        0.0,
        0.0,
        0.0,
        1.0,
        0.0,
        0.0,
        -1.0,
        0.0,
        0.0,
        0.0,
        0.0,
        0.0,
        1.0
      ],
      "name": "515d6388548e49d0b478cd28eaf9149a.fbx"
    },
    {
      "children": [
        3
      ],
      "name": "RootNode"
    },
    {
      "children": [
        4,
        5,
        6
      ],
      "matrix": [
        100.0,
        0.0,
        0.0,
        0.0,
        0.0,
        -1.629206793918314e-05,
        -99.99999999999868,
        0.0,
        0.0,
        99.99999999999868,
        -1.629206793918314e-05,
        0.0,
        0.0,
        0.0,
        0.0,
        1.0
      ],
      "name": "Lightbulb"
    },
    {
      "mesh": 0,
      "name": "Lightbulb_Connection_0"
    },
    {
      "mesh": 1,
      "name": "Lightbulb_Lightbulb_Glass_0"
    },
    {
      "mesh": 2,
      "name": "Lightbulb_Metal_0"
    }
  ],
  "scene": 0,
  "scenes": [
    {
      "name": "Sketchfab_Scene",
      "nodes": [
        0
      ]
    }
  ]
}
